<mxfile host="app.diagrams.net" modified="2024-01-31T07:53:17.379Z" agent="Mozilla/5.0 (Windows NT 10.0; Win64; x64) AppleWebKit/537.36 (KHTML, like Gecko) Chrome/121.0.0.0 Safari/537.36 Edg/121.0.0.0" version="23.0.2" etag="g5BxIZ0OMYoFVRNJKgBd" type="github">
  <diagram name="第 1 页" id="7Z7HsxBISbT_Few3N9wP">
    <mxGraphModel>
      <root>
        <mxCell id="0" />
        <mxCell id="1" parent="0" />
      </root>
    </mxGraphModel>
  </diagram>
</mxfile>
